<svg xmlns="http://www.w3.org/2000/svg" xmlns:xlink="http://www.w3.org/1999/xlink" width="1080" zoomAndPan="magnify" viewBox="0 0 810 809.999993" height="1080" preserveAspectRatio="xMidYMid meet" version="1.0"><defs><g/><clipPath id="b8355f8657"><path d="M 8.117188 25.75 L 213.960938 25.75 L 213.960938 231.59375 L 8.117188 231.59375 Z M 8.117188 25.75 " clip-rule="nonzero"/></clipPath><clipPath id="d5f302ddff"><path d="M 19.367188 72.679688 L 192.730469 72.679688 L 192.730469 184.65625 L 19.367188 184.65625 Z M 19.367188 72.679688 " clip-rule="nonzero"/></clipPath><clipPath id="5ed8b7eb47"><rect x="0" width="240" y="0" height="258"/></clipPath><clipPath id="9be3aa887a"><path d="M 0.359375 24 L 46 24 L 46 73 L 0.359375 73 Z M 0.359375 24 " clip-rule="nonzero"/></clipPath><clipPath id="3cbcadf6b5"><rect x="0" width="551" y="0" height="91"/></clipPath><clipPath id="73726e7c5f"><rect x="0" width="547" y="0" height="71"/></clipPath></defs><g transform="matrix(1, 0, 0, 1, 0, 278)"><g clip-path="url(#5ed8b7eb47)"><g clip-path="url(#b8355f8657)"><path stroke-linecap="butt" transform="matrix(0.457434, 0, 0, 0.457434, 8.11583, 25.750005)" fill="none" stroke-linejoin="miter" d="M 0.00296788 -0.0000103157 L 449.999531 -0.0000103157 L 449.999531 449.996553 L 0.00296788 449.996553 Z M 0.00296788 -0.0000103157 " stroke="#704a2e" stroke-width="26.233286" stroke-opacity="1" stroke-miterlimit="4"/></g><g clip-path="url(#d5f302ddff)"><path fill="#704a2e" d="M 165.285156 128.667969 C 180.398438 126.195312 188.027344 118.773438 191.15625 110.113281 C 193.253906 104.308594 193.253906 97.914062 191.15625 92.113281 C 187.308594 81.457031 176.648438 72.679688 153.617188 72.679688 L 89.792969 72.679688 L 90.484375 74.558594 L 93.875 74.558594 L 93.875 74.632812 C 99.675781 74.632812 104.378906 79.335938 104.378906 85.140625 L 116.222656 118.945312 L 123.964844 141.058594 L 123.964844 84.679688 C 123.964844 84.59375 123.976562 84.515625 123.992188 84.4375 C 124.355469 78.964844 128.90625 74.632812 134.472656 74.632812 C 135.511719 74.632812 137.324219 74.632812 137.324219 74.632812 C 169.3125 74.953125 172.570312 92.804688 172.652344 101.113281 C 172.574219 108.863281 169.863281 125.066406 143.554688 127.484375 L 143.554688 129.851562 C 169.863281 132.269531 172.574219 148.472656 172.652344 156.222656 C 172.566406 164.609375 167.457031 182.664062 134.628906 182.664062 L 136.570312 182.703125 C 134.84375 182.699219 133.011719 182.628906 131.160156 182.421875 C 125.15625 181.566406 120.351562 178.929688 116.761719 174.011719 C 114.898438 171.429688 112.613281 166.699219 109.917969 159.824219 C 103.265625 140.84375 79.382812 72.679688 79.382812 72.679688 L 75.09375 72.679688 L 46.972656 153.402344 C 43.199219 163.820312 40.113281 170.691406 37.714844 174.011719 C 33.367188 179.964844 27.253906 182.941406 19.367188 182.941406 L 19.367188 184.65625 L 62.921875 184.65625 L 62.921875 182.941406 C 57.089844 182.941406 52.574219 182.023438 49.375 180.183594 C 46.171875 178.347656 44.574219 175.300781 44.574219 171.054688 C 44.574219 168.296875 45.253906 165.023438 46.617188 161.234375 L 68.066406 99.660156 L 89.617188 161.234375 C 90.980469 165.023438 91.664062 168.296875 91.664062 171.054688 C 91.664062 175.300781 90.0625 178.347656 86.863281 180.183594 C 83.664062 182.023438 79.144531 182.941406 73.316406 182.941406 L 73.316406 184.65625 L 153.617188 184.65625 C 176.648438 184.65625 187.308594 175.878906 191.15625 165.222656 C 193.253906 159.421875 193.253906 153.027344 191.15625 147.222656 C 188.027344 138.5625 180.398438 131.140625 165.285156 128.667969 " fill-opacity="1" fill-rule="nonzero"/></g></g></g><g transform="matrix(1, 0, 0, 1, 243, 315)"><g clip-path="url(#3cbcadf6b5)"><g clip-path="url(#9be3aa887a)"><g fill="#704a2e" fill-opacity="1"><g transform="translate(1.365826, 72.774329)"><g><path d="M 23.75 -47.828125 L 40.09375 -5.65625 C 40.757812 -4.039062 41.484375 -2.925781 42.265625 -2.3125 C 43.054688 -1.707031 43.789062 -1.382812 44.46875 -1.34375 L 44.46875 0 C 43.300781 -0.09375 41.894531 -0.148438 40.25 -0.171875 C 38.613281 -0.191406 36.945312 -0.203125 35.25 -0.203125 C 33.269531 -0.203125 31.425781 -0.191406 29.71875 -0.171875 C 28.019531 -0.148438 26.632812 -0.09375 25.5625 0 L 25.5625 -1.34375 C 27.84375 -1.4375 29.296875 -1.828125 29.921875 -2.515625 C 30.554688 -3.210938 30.425781 -4.707031 29.53125 -7 L 17.6875 -38.953125 L 18.90625 -40.421875 L 8.140625 -12.515625 C 7.285156 -10.265625 6.769531 -8.421875 6.59375 -6.984375 C 6.414062 -5.554688 6.523438 -4.4375 6.921875 -3.625 C 7.328125 -2.820312 8 -2.25 8.9375 -1.90625 C 9.882812 -1.570312 11.050781 -1.382812 12.4375 -1.34375 L 12.4375 0 C 11.007812 -0.09375 9.617188 -0.148438 8.265625 -0.171875 C 6.921875 -0.191406 5.578125 -0.203125 4.234375 -0.203125 C 3.253906 -0.203125 2.328125 -0.191406 1.453125 -0.171875 C 0.578125 -0.148438 -0.195312 -0.09375 -0.875 0 L -0.875 -1.34375 C 0.113281 -1.570312 1.085938 -2.15625 2.046875 -3.09375 C 3.015625 -4.03125 3.945312 -5.664062 4.84375 -8 L 20.25 -47.828125 C 20.78125 -47.785156 21.359375 -47.765625 21.984375 -47.765625 C 22.617188 -47.765625 23.207031 -47.785156 23.75 -47.828125 Z M 29.59375 -19.375 L 29.59375 -18.03125 L 9.546875 -18.03125 L 10.21875 -19.375 Z M 29.59375 -19.375 "/></g></g></g></g><g fill="#704a2e" fill-opacity="1"><g transform="translate(49.456636, 72.774329)"><g><path d="M 2.421875 -47.625 C 3.546875 -47.582031 4.976562 -47.535156 6.71875 -47.484375 C 8.46875 -47.441406 10.21875 -47.421875 11.96875 -47.421875 C 14.164062 -47.421875 16.25 -47.441406 18.21875 -47.484375 C 20.195312 -47.535156 21.59375 -47.5625 22.40625 -47.5625 C 27.695312 -47.5625 31.648438 -46.570312 34.265625 -44.59375 C 36.890625 -42.625 38.203125 -40.09375 38.203125 -37 C 38.203125 -35.425781 37.785156 -33.851562 36.953125 -32.28125 C 36.128906 -30.71875 34.804688 -29.304688 32.984375 -28.046875 C 31.171875 -26.796875 28.804688 -25.851562 25.890625 -25.21875 L 25.890625 -25.09375 C 29.835938 -24.726562 32.96875 -23.929688 35.28125 -22.703125 C 37.59375 -21.472656 39.238281 -20.015625 40.21875 -18.328125 C 41.207031 -16.648438 41.703125 -14.890625 41.703125 -13.046875 C 41.703125 -10.316406 40.992188 -7.972656 39.578125 -6.015625 C 38.171875 -4.066406 36.144531 -2.578125 33.5 -1.546875 C 30.851562 -0.515625 27.671875 0 23.953125 0 C 22.960938 0 21.457031 -0.03125 19.4375 -0.09375 C 17.414062 -0.164062 14.972656 -0.203125 12.109375 -0.203125 C 10.265625 -0.203125 8.46875 -0.191406 6.71875 -0.171875 C 4.976562 -0.148438 3.546875 -0.09375 2.421875 0 L 2.421875 -1.34375 C 3.898438 -1.4375 5.007812 -1.613281 5.75 -1.875 C 6.488281 -2.144531 6.976562 -2.679688 7.21875 -3.484375 C 7.46875 -4.296875 7.59375 -5.507812 7.59375 -7.125 L 7.59375 -40.5 C 7.59375 -42.15625 7.46875 -43.375 7.21875 -44.15625 C 6.976562 -44.945312 6.488281 -45.488281 5.75 -45.78125 C 5.007812 -46.070312 3.898438 -46.238281 2.421875 -46.28125 Z M 21.25 -46.28125 C 19.414062 -46.28125 18.21875 -45.894531 17.65625 -45.125 C 17.09375 -44.363281 16.8125 -42.820312 16.8125 -40.5 L 16.8125 -7.125 C 16.8125 -5.5625 16.945312 -4.375 17.21875 -3.5625 C 17.488281 -2.757812 17.957031 -2.222656 18.625 -1.953125 C 19.300781 -1.679688 20.289062 -1.546875 21.59375 -1.546875 C 25.269531 -1.546875 27.925781 -2.566406 29.5625 -4.609375 C 31.195312 -6.648438 32.015625 -9.550781 32.015625 -13.3125 C 32.015625 -16.769531 31.128906 -19.4375 29.359375 -21.3125 C 27.585938 -23.195312 24.660156 -24.140625 20.578125 -24.140625 L 14.46875 -24.140625 C 14.46875 -24.140625 14.46875 -24.332031 14.46875 -24.71875 C 14.46875 -25.101562 14.46875 -25.296875 14.46875 -25.296875 L 20.25 -25.296875 C 22.53125 -25.296875 24.296875 -25.796875 25.546875 -26.796875 C 26.804688 -27.804688 27.660156 -29.148438 28.109375 -30.828125 C 28.566406 -32.515625 28.796875 -34.320312 28.796875 -36.25 C 28.796875 -39.570312 28.210938 -42.070312 27.046875 -43.75 C 25.878906 -45.4375 23.945312 -46.28125 21.25 -46.28125 Z M 21.25 -46.28125 "/></g></g></g><g fill="#704a2e" fill-opacity="1"><g transform="translate(98.892787, 72.774329)"><g/></g></g><g fill="#704a2e" fill-opacity="1"><g transform="translate(120.349421, 72.774329)"><g><path d="M 37.59375 -47.625 C 37.414062 -45.695312 37.289062 -43.832031 37.21875 -42.03125 C 37.15625 -40.238281 37.125 -38.875 37.125 -37.9375 C 37.125 -36.90625 37.144531 -35.941406 37.1875 -35.046875 C 37.238281 -34.148438 37.285156 -33.363281 37.328125 -32.6875 L 35.78125 -32.6875 C 35.289062 -36.050781 34.617188 -38.707031 33.765625 -40.65625 C 32.910156 -42.613281 31.765625 -44.003906 30.328125 -44.828125 C 28.898438 -45.660156 27 -46.078125 24.625 -46.078125 L 21.734375 -46.078125 C 20.378906 -46.078125 19.34375 -45.960938 18.625 -45.734375 C 17.914062 -45.515625 17.4375 -45.046875 17.1875 -44.328125 C 16.9375 -43.609375 16.8125 -42.507812 16.8125 -41.03125 L 16.8125 -7.40625 C 16.8125 -5.695312 16.988281 -4.414062 17.34375 -3.5625 C 17.707031 -2.707031 18.40625 -2.144531 19.4375 -1.875 C 20.46875 -1.613281 21.945312 -1.457031 23.875 -1.40625 L 23.875 0 C 22.570312 -0.09375 20.890625 -0.148438 18.828125 -0.171875 C 16.765625 -0.191406 14.632812 -0.203125 12.4375 -0.203125 C 10.5625 -0.203125 8.75 -0.191406 7 -0.171875 C 5.25 -0.148438 3.722656 -0.09375 2.421875 0 L 2.421875 -1.34375 C 3.898438 -1.4375 5.007812 -1.613281 5.75 -1.875 C 6.488281 -2.144531 6.976562 -2.679688 7.21875 -3.484375 C 7.46875 -4.296875 7.59375 -5.507812 7.59375 -7.125 L 7.59375 -40.5 C 7.59375 -42.15625 7.46875 -43.375 7.21875 -44.15625 C 6.976562 -44.945312 6.488281 -45.488281 5.75 -45.78125 C 5.007812 -46.070312 3.898438 -46.238281 2.421875 -46.28125 L 2.421875 -47.625 C 4.210938 -47.582031 6.101562 -47.546875 8.09375 -47.515625 C 10.09375 -47.492188 12.066406 -47.472656 14.015625 -47.453125 C 15.972656 -47.429688 17.789062 -47.421875 19.46875 -47.421875 C 21.15625 -47.421875 22.515625 -47.421875 23.546875 -47.421875 C 25.609375 -47.421875 27.945312 -47.429688 30.5625 -47.453125 C 33.1875 -47.472656 35.53125 -47.53125 37.59375 -47.625 Z M 27.4375 -24.21875 C 27.4375 -24.21875 27.4375 -23.992188 27.4375 -23.546875 C 27.4375 -23.097656 27.4375 -22.875 27.4375 -22.875 L 14.796875 -22.875 C 14.796875 -22.875 14.796875 -23.097656 14.796875 -23.546875 C 14.796875 -23.992188 14.796875 -24.21875 14.796875 -24.21875 Z M 28.984375 -33.09375 C 28.804688 -30.539062 28.726562 -28.585938 28.75 -27.234375 C 28.78125 -25.890625 28.796875 -24.660156 28.796875 -23.546875 C 28.796875 -22.421875 28.816406 -21.1875 28.859375 -19.84375 C 28.898438 -18.5 29.007812 -16.546875 29.1875 -13.984375 L 27.640625 -13.984375 C 27.460938 -15.515625 27.125 -16.960938 26.625 -18.328125 C 26.132812 -19.691406 25.382812 -20.789062 24.375 -21.625 C 23.375 -22.457031 21.929688 -22.875 20.046875 -22.875 L 20.046875 -24.21875 C 21.429688 -24.21875 22.570312 -24.507812 23.46875 -25.09375 C 24.375 -25.675781 25.082031 -26.425781 25.59375 -27.34375 C 26.113281 -28.257812 26.519531 -29.222656 26.8125 -30.234375 C 27.101562 -31.242188 27.3125 -32.195312 27.4375 -33.09375 Z M 28.984375 -33.09375 "/></g></g></g><g fill="#704a2e" fill-opacity="1"><g transform="translate(165.077485, 72.774329)"><g><path d="M 44.734375 -47.625 L 44.734375 -46.28125 C 43.296875 -46.144531 42.207031 -45.816406 41.46875 -45.296875 C 40.726562 -44.785156 40.222656 -43.976562 39.953125 -42.875 C 39.679688 -41.78125 39.546875 -40.222656 39.546875 -38.203125 L 39.546875 -19.578125 C 39.546875 -16.566406 39.351562 -13.875 38.96875 -11.5 C 38.59375 -9.125 37.867188 -7.0625 36.796875 -5.3125 C 35.671875 -3.425781 34 -1.910156 31.78125 -0.765625 C 29.5625 0.367188 26.859375 0.9375 23.671875 0.9375 C 21.523438 0.9375 19.40625 0.691406 17.3125 0.203125 C 15.226562 -0.285156 13.40625 -1.207031 11.84375 -2.5625 C 10.445312 -3.726562 9.359375 -5.050781 8.578125 -6.53125 C 7.796875 -8.007812 7.269531 -9.789062 7 -11.875 C 6.726562 -13.957031 6.59375 -16.457031 6.59375 -19.375 L 6.59375 -40.5 C 6.59375 -42.15625 6.46875 -43.375 6.21875 -44.15625 C 5.976562 -44.945312 5.484375 -45.488281 4.734375 -45.78125 C 3.992188 -46.070312 2.882812 -46.238281 1.40625 -46.28125 L 1.40625 -47.625 C 2.53125 -47.582031 3.96875 -47.535156 5.71875 -47.484375 C 7.46875 -47.441406 9.351562 -47.421875 11.375 -47.421875 C 13.207031 -47.421875 15.019531 -47.441406 16.8125 -47.484375 C 18.601562 -47.535156 20.082031 -47.582031 21.25 -47.625 L 21.25 -46.28125 C 19.726562 -46.238281 18.570312 -46.070312 17.78125 -45.78125 C 17 -45.488281 16.472656 -44.945312 16.203125 -44.15625 C 15.941406 -43.375 15.8125 -42.15625 15.8125 -40.5 L 15.8125 -16.140625 C 15.8125 -13.898438 15.957031 -11.867188 16.25 -10.046875 C 16.539062 -8.234375 17.03125 -6.675781 17.71875 -5.375 C 18.414062 -4.082031 19.398438 -3.097656 20.671875 -2.421875 C 21.953125 -1.742188 23.582031 -1.40625 25.5625 -1.40625 C 28.832031 -1.40625 31.363281 -2.144531 33.15625 -3.625 C 34.957031 -5.113281 36.210938 -7.179688 36.921875 -9.828125 C 37.640625 -12.472656 38 -15.472656 38 -18.828125 L 38 -37.671875 C 38 -39.867188 37.84375 -41.550781 37.53125 -42.71875 C 37.21875 -43.882812 36.601562 -44.734375 35.6875 -45.265625 C 34.769531 -45.804688 33.410156 -46.144531 31.609375 -46.28125 L 31.609375 -47.625 C 32.460938 -47.582031 33.570312 -47.535156 34.9375 -47.484375 C 36.3125 -47.441406 37.582031 -47.421875 38.75 -47.421875 C 39.863281 -47.421875 40.96875 -47.441406 42.0625 -47.484375 C 43.164062 -47.535156 44.054688 -47.582031 44.734375 -47.625 Z M 44.734375 -47.625 "/></g></g></g><g fill="#704a2e" fill-opacity="1"><g transform="translate(216.598647, 72.774329)"><g><path d="M 2.421875 -47.625 C 3.546875 -47.582031 4.976562 -47.535156 6.71875 -47.484375 C 8.46875 -47.441406 10.21875 -47.421875 11.96875 -47.421875 C 14.164062 -47.421875 16.25 -47.441406 18.21875 -47.484375 C 20.195312 -47.535156 21.59375 -47.5625 22.40625 -47.5625 C 26.4375 -47.5625 29.765625 -47.078125 32.390625 -46.109375 C 35.015625 -45.148438 36.972656 -43.796875 38.265625 -42.046875 C 39.566406 -40.296875 40.21875 -38.234375 40.21875 -35.859375 C 40.21875 -34.367188 39.925781 -32.847656 39.34375 -31.296875 C 38.757812 -29.753906 37.75 -28.332031 36.3125 -27.03125 C 34.882812 -25.738281 32.925781 -24.675781 30.4375 -23.84375 C 27.945312 -23.007812 24.773438 -22.59375 20.921875 -22.59375 L 14.46875 -22.59375 L 14.46875 -23.953125 L 20.25 -23.953125 C 23.070312 -23.953125 25.234375 -24.453125 26.734375 -25.453125 C 28.234375 -26.460938 29.238281 -27.804688 29.75 -29.484375 C 30.269531 -31.171875 30.53125 -33.046875 30.53125 -35.109375 C 30.53125 -38.648438 29.835938 -41.394531 28.453125 -43.34375 C 27.066406 -45.300781 24.664062 -46.28125 21.25 -46.28125 C 19.414062 -46.28125 18.21875 -45.894531 17.65625 -45.125 C 17.09375 -44.363281 16.8125 -42.820312 16.8125 -40.5 L 16.8125 -7.125 C 16.8125 -5.507812 16.945312 -4.296875 17.21875 -3.484375 C 17.488281 -2.679688 17.992188 -2.144531 18.734375 -1.875 C 19.472656 -1.613281 20.5625 -1.4375 22 -1.34375 L 22 0 C 20.875 -0.09375 19.4375 -0.148438 17.6875 -0.171875 C 15.9375 -0.191406 14.164062 -0.203125 12.375 -0.203125 C 10.351562 -0.203125 8.46875 -0.191406 6.71875 -0.171875 C 4.976562 -0.148438 3.546875 -0.09375 2.421875 0 L 2.421875 -1.34375 C 3.898438 -1.4375 5.007812 -1.613281 5.75 -1.875 C 6.488281 -2.144531 6.976562 -2.679688 7.21875 -3.484375 C 7.46875 -4.296875 7.59375 -5.507812 7.59375 -7.125 L 7.59375 -40.5 C 7.59375 -42.15625 7.46875 -43.375 7.21875 -44.15625 C 6.976562 -44.945312 6.488281 -45.488281 5.75 -45.78125 C 5.007812 -46.070312 3.898438 -46.238281 2.421875 -46.28125 Z M 14.46875 -23.75 C 16.570312 -23.65625 18.328125 -23.550781 19.734375 -23.4375 C 21.148438 -23.332031 22.363281 -23.234375 23.375 -23.140625 C 24.382812 -23.046875 25.289062 -22.929688 26.09375 -22.796875 C 29.820312 -22.441406 32.570312 -21.578125 34.34375 -20.203125 C 36.113281 -18.835938 37.289062 -16.765625 37.875 -13.984375 L 39.421875 -7.0625 C 39.816406 -5.226562 40.25 -3.914062 40.71875 -3.125 C 41.195312 -2.34375 41.882812 -1.972656 42.78125 -2.015625 C 43.40625 -2.015625 43.941406 -2.179688 44.390625 -2.515625 C 44.835938 -2.859375 45.285156 -3.320312 45.734375 -3.90625 L 46.6875 -3.09375 C 45.5625 -1.707031 44.367188 -0.6875 43.109375 -0.03125 C 41.859375 0.613281 40.269531 0.9375 38.34375 0.9375 C 36.1875 0.9375 34.367188 0.4375 32.890625 -0.5625 C 31.410156 -1.570312 30.398438 -3.492188 29.859375 -6.328125 L 28.59375 -13.046875 C 28.226562 -14.929688 27.8125 -16.585938 27.34375 -18.015625 C 26.875 -19.453125 26.234375 -20.570312 25.421875 -21.375 C 24.617188 -22.1875 23.429688 -22.59375 21.859375 -22.59375 L 14.59375 -22.59375 Z M 14.46875 -23.75 "/></g></g></g><g fill="#704a2e" fill-opacity="1"><g transform="translate(267.514481, 72.774329)"><g><path d="M 46.078125 -47.625 L 46.078125 -46.28125 C 44.640625 -46.144531 43.539062 -45.816406 42.78125 -45.296875 C 42.019531 -44.785156 41.515625 -43.976562 41.265625 -42.875 C 41.015625 -41.78125 40.890625 -40.222656 40.890625 -38.203125 L 40.890625 0.203125 C 40.492188 0.160156 40.054688 0.140625 39.578125 0.140625 C 39.109375 0.140625 38.609375 0.160156 38.078125 0.203125 L 9.21875 -39.015625 L 9.21875 -9.953125 C 9.21875 -7.796875 9.347656 -6.125 9.609375 -4.9375 C 9.878906 -3.75 10.472656 -2.894531 11.390625 -2.375 C 12.316406 -1.863281 13.722656 -1.519531 15.609375 -1.34375 L 15.609375 0 C 14.753906 -0.09375 13.65625 -0.148438 12.3125 -0.171875 C 10.96875 -0.191406 9.6875 -0.203125 8.46875 -0.203125 C 7.394531 -0.203125 6.304688 -0.191406 5.203125 -0.171875 C 4.109375 -0.148438 3.203125 -0.09375 2.484375 0 L 2.484375 -1.34375 C 3.960938 -1.519531 5.070312 -1.851562 5.8125 -2.34375 C 6.550781 -2.84375 7.046875 -3.648438 7.296875 -4.765625 C 7.546875 -5.890625 7.671875 -7.441406 7.671875 -9.421875 L 7.671875 -40.5 C 7.671875 -42.15625 7.546875 -43.375 7.296875 -44.15625 C 7.046875 -44.945312 6.550781 -45.488281 5.8125 -45.78125 C 5.070312 -46.070312 3.960938 -46.238281 2.484375 -46.28125 L 2.484375 -47.625 C 3.203125 -47.582031 4.109375 -47.535156 5.203125 -47.484375 C 6.304688 -47.441406 7.394531 -47.421875 8.46875 -47.421875 C 9.5 -47.421875 10.507812 -47.441406 11.5 -47.484375 C 12.488281 -47.535156 13.363281 -47.582031 14.125 -47.625 L 39.34375 -14.0625 L 39.34375 -37.671875 C 39.34375 -39.867188 39.207031 -41.550781 38.9375 -42.71875 C 38.675781 -43.882812 38.097656 -44.734375 37.203125 -45.265625 C 36.304688 -45.804688 34.890625 -46.144531 32.953125 -46.28125 L 32.953125 -47.625 C 33.804688 -47.582031 34.914062 -47.535156 36.28125 -47.484375 C 37.65625 -47.441406 38.925781 -47.421875 40.09375 -47.421875 C 41.207031 -47.421875 42.3125 -47.441406 43.40625 -47.484375 C 44.507812 -47.535156 45.398438 -47.582031 46.078125 -47.625 Z M 46.078125 -47.625 "/></g></g></g><g fill="#704a2e" fill-opacity="1"><g transform="translate(321.053408, 72.774329)"><g><path d="M 22 -47.625 L 22 -46.28125 C 20.5625 -46.238281 19.472656 -46.070312 18.734375 -45.78125 C 17.992188 -45.488281 17.488281 -44.945312 17.21875 -44.15625 C 16.945312 -43.375 16.8125 -42.15625 16.8125 -40.5 L 16.8125 -7.125 C 16.8125 -5.507812 16.945312 -4.296875 17.21875 -3.484375 C 17.488281 -2.679688 17.992188 -2.144531 18.734375 -1.875 C 19.472656 -1.613281 20.5625 -1.4375 22 -1.34375 L 22 0 C 20.875 -0.09375 19.4375 -0.148438 17.6875 -0.171875 C 15.9375 -0.191406 14.164062 -0.203125 12.375 -0.203125 C 10.351562 -0.203125 8.46875 -0.191406 6.71875 -0.171875 C 4.976562 -0.148438 3.546875 -0.09375 2.421875 0 L 2.421875 -1.34375 C 3.898438 -1.4375 5.007812 -1.613281 5.75 -1.875 C 6.488281 -2.144531 6.976562 -2.679688 7.21875 -3.484375 C 7.46875 -4.296875 7.59375 -5.507812 7.59375 -7.125 L 7.59375 -40.5 C 7.59375 -42.15625 7.46875 -43.375 7.21875 -44.15625 C 6.976562 -44.945312 6.488281 -45.488281 5.75 -45.78125 C 5.007812 -46.070312 3.898438 -46.238281 2.421875 -46.28125 L 2.421875 -47.625 C 3.546875 -47.582031 4.976562 -47.535156 6.71875 -47.484375 C 8.46875 -47.441406 10.351562 -47.421875 12.375 -47.421875 C 14.164062 -47.421875 15.9375 -47.441406 17.6875 -47.484375 C 19.4375 -47.535156 20.875 -47.582031 22 -47.625 Z M 22 -47.625 "/></g></g></g><g fill="#704a2e" fill-opacity="1"><g transform="translate(350.917358, 72.774329)"><g><path d="M 42.109375 -47.625 C 41.929688 -45.5625 41.804688 -43.550781 41.734375 -41.59375 C 41.671875 -39.644531 41.640625 -38.15625 41.640625 -37.125 C 41.640625 -36.09375 41.660156 -35.128906 41.703125 -34.234375 C 41.742188 -33.335938 41.789062 -32.554688 41.84375 -31.890625 L 40.296875 -31.890625 C 39.660156 -35.472656 38.894531 -38.285156 38 -40.328125 C 37.101562 -42.367188 35.925781 -43.835938 34.46875 -44.734375 C 33.007812 -45.628906 31.09375 -46.078125 28.71875 -46.078125 L 26.5625 -46.078125 L 26.5625 -7.734375 C 26.5625 -5.898438 26.726562 -4.53125 27.0625 -3.625 C 27.40625 -2.726562 28.09375 -2.132812 29.125 -1.84375 C 30.15625 -1.550781 31.65625 -1.382812 33.625 -1.34375 L 33.625 0 C 32.28125 -0.09375 30.53125 -0.148438 28.375 -0.171875 C 26.226562 -0.191406 24.035156 -0.203125 21.796875 -0.203125 C 19.460938 -0.203125 17.273438 -0.191406 15.234375 -0.171875 C 13.191406 -0.148438 11.546875 -0.09375 10.296875 0 L 10.296875 -1.34375 C 12.222656 -1.382812 13.703125 -1.550781 14.734375 -1.84375 C 15.765625 -2.132812 16.457031 -2.726562 16.8125 -3.625 C 17.175781 -4.53125 17.359375 -5.898438 17.359375 -7.734375 L 17.359375 -46.078125 L 15.140625 -46.078125 C 12.804688 -46.078125 10.898438 -45.628906 9.421875 -44.734375 C 7.941406 -43.835938 6.75 -42.367188 5.84375 -40.328125 C 4.945312 -38.285156 4.207031 -35.472656 3.625 -31.890625 L 2.078125 -31.890625 C 2.171875 -32.554688 2.226562 -33.335938 2.25 -34.234375 C 2.269531 -35.128906 2.28125 -36.09375 2.28125 -37.125 C 2.28125 -38.15625 2.242188 -39.644531 2.171875 -41.59375 C 2.109375 -43.550781 1.988281 -45.5625 1.8125 -47.625 C 3.789062 -47.582031 5.96875 -47.535156 8.34375 -47.484375 C 10.71875 -47.441406 13.09375 -47.421875 15.46875 -47.421875 C 17.84375 -47.421875 20.019531 -47.421875 22 -47.421875 C 23.925781 -47.421875 26.078125 -47.421875 28.453125 -47.421875 C 30.828125 -47.421875 33.203125 -47.441406 35.578125 -47.484375 C 37.960938 -47.535156 40.140625 -47.582031 42.109375 -47.625 Z M 42.109375 -47.625 "/></g></g></g><g fill="#704a2e" fill-opacity="1"><g transform="translate(400.151744, 72.774329)"><g><path d="M 44.734375 -47.625 L 44.734375 -46.28125 C 43.296875 -46.144531 42.207031 -45.816406 41.46875 -45.296875 C 40.726562 -44.785156 40.222656 -43.976562 39.953125 -42.875 C 39.679688 -41.78125 39.546875 -40.222656 39.546875 -38.203125 L 39.546875 -19.578125 C 39.546875 -16.566406 39.351562 -13.875 38.96875 -11.5 C 38.59375 -9.125 37.867188 -7.0625 36.796875 -5.3125 C 35.671875 -3.425781 34 -1.910156 31.78125 -0.765625 C 29.5625 0.367188 26.859375 0.9375 23.671875 0.9375 C 21.523438 0.9375 19.40625 0.691406 17.3125 0.203125 C 15.226562 -0.285156 13.40625 -1.207031 11.84375 -2.5625 C 10.445312 -3.726562 9.359375 -5.050781 8.578125 -6.53125 C 7.796875 -8.007812 7.269531 -9.789062 7 -11.875 C 6.726562 -13.957031 6.59375 -16.457031 6.59375 -19.375 L 6.59375 -40.5 C 6.59375 -42.15625 6.46875 -43.375 6.21875 -44.15625 C 5.976562 -44.945312 5.484375 -45.488281 4.734375 -45.78125 C 3.992188 -46.070312 2.882812 -46.238281 1.40625 -46.28125 L 1.40625 -47.625 C 2.53125 -47.582031 3.96875 -47.535156 5.71875 -47.484375 C 7.46875 -47.441406 9.351562 -47.421875 11.375 -47.421875 C 13.207031 -47.421875 15.019531 -47.441406 16.8125 -47.484375 C 18.601562 -47.535156 20.082031 -47.582031 21.25 -47.625 L 21.25 -46.28125 C 19.726562 -46.238281 18.570312 -46.070312 17.78125 -45.78125 C 17 -45.488281 16.472656 -44.945312 16.203125 -44.15625 C 15.941406 -43.375 15.8125 -42.15625 15.8125 -40.5 L 15.8125 -16.140625 C 15.8125 -13.898438 15.957031 -11.867188 16.25 -10.046875 C 16.539062 -8.234375 17.03125 -6.675781 17.71875 -5.375 C 18.414062 -4.082031 19.398438 -3.097656 20.671875 -2.421875 C 21.953125 -1.742188 23.582031 -1.40625 25.5625 -1.40625 C 28.832031 -1.40625 31.363281 -2.144531 33.15625 -3.625 C 34.957031 -5.113281 36.210938 -7.179688 36.921875 -9.828125 C 37.640625 -12.472656 38 -15.472656 38 -18.828125 L 38 -37.671875 C 38 -39.867188 37.84375 -41.550781 37.53125 -42.71875 C 37.21875 -43.882812 36.601562 -44.734375 35.6875 -45.265625 C 34.769531 -45.804688 33.410156 -46.144531 31.609375 -46.28125 L 31.609375 -47.625 C 32.460938 -47.582031 33.570312 -47.535156 34.9375 -47.484375 C 36.3125 -47.441406 37.582031 -47.421875 38.75 -47.421875 C 39.863281 -47.421875 40.96875 -47.441406 42.0625 -47.484375 C 43.164062 -47.535156 44.054688 -47.582031 44.734375 -47.625 Z M 44.734375 -47.625 "/></g></g></g><g fill="#704a2e" fill-opacity="1"><g transform="translate(451.672921, 72.774329)"><g><path d="M 2.421875 -47.625 C 3.546875 -47.582031 4.976562 -47.535156 6.71875 -47.484375 C 8.46875 -47.441406 10.21875 -47.421875 11.96875 -47.421875 C 14.164062 -47.421875 16.25 -47.441406 18.21875 -47.484375 C 20.195312 -47.535156 21.59375 -47.5625 22.40625 -47.5625 C 26.4375 -47.5625 29.765625 -47.078125 32.390625 -46.109375 C 35.015625 -45.148438 36.972656 -43.796875 38.265625 -42.046875 C 39.566406 -40.296875 40.21875 -38.234375 40.21875 -35.859375 C 40.21875 -34.367188 39.925781 -32.847656 39.34375 -31.296875 C 38.757812 -29.753906 37.75 -28.332031 36.3125 -27.03125 C 34.882812 -25.738281 32.925781 -24.675781 30.4375 -23.84375 C 27.945312 -23.007812 24.773438 -22.59375 20.921875 -22.59375 L 14.46875 -22.59375 L 14.46875 -23.953125 L 20.25 -23.953125 C 23.070312 -23.953125 25.234375 -24.453125 26.734375 -25.453125 C 28.234375 -26.460938 29.238281 -27.804688 29.75 -29.484375 C 30.269531 -31.171875 30.53125 -33.046875 30.53125 -35.109375 C 30.53125 -38.648438 29.835938 -41.394531 28.453125 -43.34375 C 27.066406 -45.300781 24.664062 -46.28125 21.25 -46.28125 C 19.414062 -46.28125 18.21875 -45.894531 17.65625 -45.125 C 17.09375 -44.363281 16.8125 -42.820312 16.8125 -40.5 L 16.8125 -7.125 C 16.8125 -5.507812 16.945312 -4.296875 17.21875 -3.484375 C 17.488281 -2.679688 17.992188 -2.144531 18.734375 -1.875 C 19.472656 -1.613281 20.5625 -1.4375 22 -1.34375 L 22 0 C 20.875 -0.09375 19.4375 -0.148438 17.6875 -0.171875 C 15.9375 -0.191406 14.164062 -0.203125 12.375 -0.203125 C 10.351562 -0.203125 8.46875 -0.191406 6.71875 -0.171875 C 4.976562 -0.148438 3.546875 -0.09375 2.421875 0 L 2.421875 -1.34375 C 3.898438 -1.4375 5.007812 -1.613281 5.75 -1.875 C 6.488281 -2.144531 6.976562 -2.679688 7.21875 -3.484375 C 7.46875 -4.296875 7.59375 -5.507812 7.59375 -7.125 L 7.59375 -40.5 C 7.59375 -42.15625 7.46875 -43.375 7.21875 -44.15625 C 6.976562 -44.945312 6.488281 -45.488281 5.75 -45.78125 C 5.007812 -46.070312 3.898438 -46.238281 2.421875 -46.28125 Z M 14.46875 -23.75 C 16.570312 -23.65625 18.328125 -23.550781 19.734375 -23.4375 C 21.148438 -23.332031 22.363281 -23.234375 23.375 -23.140625 C 24.382812 -23.046875 25.289062 -22.929688 26.09375 -22.796875 C 29.820312 -22.441406 32.570312 -21.578125 34.34375 -20.203125 C 36.113281 -18.835938 37.289062 -16.765625 37.875 -13.984375 L 39.421875 -7.0625 C 39.816406 -5.226562 40.25 -3.914062 40.71875 -3.125 C 41.195312 -2.34375 41.882812 -1.972656 42.78125 -2.015625 C 43.40625 -2.015625 43.941406 -2.179688 44.390625 -2.515625 C 44.835938 -2.859375 45.285156 -3.320312 45.734375 -3.90625 L 46.6875 -3.09375 C 45.5625 -1.707031 44.367188 -0.6875 43.109375 -0.03125 C 41.859375 0.613281 40.269531 0.9375 38.34375 0.9375 C 36.1875 0.9375 34.367188 0.4375 32.890625 -0.5625 C 31.410156 -1.570312 30.398438 -3.492188 29.859375 -6.328125 L 28.59375 -13.046875 C 28.226562 -14.929688 27.8125 -16.585938 27.34375 -18.015625 C 26.875 -19.453125 26.234375 -20.570312 25.421875 -21.375 C 24.617188 -22.1875 23.429688 -22.59375 21.859375 -22.59375 L 14.59375 -22.59375 Z M 14.46875 -23.75 "/></g></g></g><g fill="#704a2e" fill-opacity="1"><g transform="translate(502.58874, 72.774329)"><g><path d="M 37.59375 -47.625 C 37.414062 -45.78125 37.289062 -43.992188 37.21875 -42.265625 C 37.15625 -40.546875 37.125 -39.238281 37.125 -38.34375 C 37.125 -37.488281 37.144531 -36.664062 37.1875 -35.875 C 37.238281 -35.09375 37.285156 -34.4375 37.328125 -33.90625 L 35.78125 -33.90625 C 35.425781 -37 34.84375 -39.429688 34.03125 -41.203125 C 33.226562 -42.972656 32.140625 -44.226562 30.765625 -44.96875 C 29.398438 -45.707031 27.617188 -46.078125 25.421875 -46.078125 L 21.734375 -46.078125 C 20.378906 -46.078125 19.34375 -45.960938 18.625 -45.734375 C 17.914062 -45.515625 17.4375 -45.046875 17.1875 -44.328125 C 16.9375 -43.609375 16.8125 -42.507812 16.8125 -41.03125 L 16.8125 -6.59375 C 16.8125 -5.15625 16.9375 -4.066406 17.1875 -3.328125 C 17.4375 -2.585938 17.914062 -2.101562 18.625 -1.875 C 19.34375 -1.65625 20.378906 -1.546875 21.734375 -1.546875 L 25.5625 -1.546875 C 27.84375 -1.546875 29.753906 -1.972656 31.296875 -2.828125 C 32.847656 -3.679688 34.09375 -5.082031 35.03125 -7.03125 C 35.976562 -8.976562 36.675781 -11.65625 37.125 -15.0625 L 38.671875 -15.0625 C 38.535156 -13.675781 38.46875 -11.882812 38.46875 -9.6875 C 38.46875 -8.75 38.5 -7.378906 38.5625 -5.578125 C 38.632812 -3.785156 38.765625 -1.925781 38.953125 0 C 36.660156 -0.09375 34.078125 -0.148438 31.203125 -0.171875 C 28.335938 -0.191406 25.785156 -0.203125 23.546875 -0.203125 C 22.515625 -0.203125 21.15625 -0.203125 19.46875 -0.203125 C 17.789062 -0.203125 15.972656 -0.191406 14.015625 -0.171875 C 12.066406 -0.148438 10.09375 -0.125 8.09375 -0.09375 C 6.101562 -0.0703125 4.210938 -0.0390625 2.421875 0 L 2.421875 -1.34375 C 3.898438 -1.4375 5.007812 -1.613281 5.75 -1.875 C 6.488281 -2.144531 6.976562 -2.679688 7.21875 -3.484375 C 7.46875 -4.296875 7.59375 -5.507812 7.59375 -7.125 L 7.59375 -40.5 C 7.59375 -42.15625 7.46875 -43.375 7.21875 -44.15625 C 6.976562 -44.945312 6.488281 -45.488281 5.75 -45.78125 C 5.007812 -46.070312 3.898438 -46.238281 2.421875 -46.28125 L 2.421875 -47.625 C 4.210938 -47.582031 6.101562 -47.546875 8.09375 -47.515625 C 10.09375 -47.492188 12.066406 -47.472656 14.015625 -47.453125 C 15.972656 -47.429688 17.789062 -47.421875 19.46875 -47.421875 C 21.15625 -47.421875 22.515625 -47.421875 23.546875 -47.421875 C 25.609375 -47.421875 27.945312 -47.429688 30.5625 -47.453125 C 33.1875 -47.472656 35.53125 -47.53125 37.59375 -47.625 Z M 26.765625 -24.625 C 26.765625 -24.625 26.765625 -24.398438 26.765625 -23.953125 C 26.765625 -23.503906 26.765625 -23.28125 26.765625 -23.28125 L 14.796875 -23.28125 C 14.796875 -23.28125 14.796875 -23.503906 14.796875 -23.953125 C 14.796875 -24.398438 14.796875 -24.625 14.796875 -24.625 Z M 28.71875 -33.5 C 28.539062 -30.945312 28.460938 -28.992188 28.484375 -27.640625 C 28.503906 -26.296875 28.515625 -25.066406 28.515625 -23.953125 C 28.515625 -22.828125 28.535156 -21.59375 28.578125 -20.25 C 28.628906 -18.90625 28.742188 -16.953125 28.921875 -14.390625 L 27.375 -14.390625 C 27.15625 -15.921875 26.804688 -17.367188 26.328125 -18.734375 C 25.859375 -20.097656 25.117188 -21.195312 24.109375 -22.03125 C 23.097656 -22.863281 21.65625 -23.28125 19.78125 -23.28125 L 19.78125 -24.625 C 21.164062 -24.625 22.296875 -24.914062 23.171875 -25.5 C 24.046875 -26.082031 24.75 -26.832031 25.28125 -27.75 C 25.820312 -28.664062 26.238281 -29.628906 26.53125 -30.640625 C 26.820312 -31.648438 27.035156 -32.601562 27.171875 -33.5 Z M 28.71875 -33.5 "/></g></g></g></g></g><g transform="matrix(1, 0, 0, 1, 243, 420)"><g clip-path="url(#73726e7c5f)"><g fill="#704a2e" fill-opacity="1"><g transform="translate(1.365826, 55.359668)"><g><path d="M 31.328125 -9.953125 L 10.171875 -9.953125 L 5.796875 0 L -0.0625 0 L 17.96875 -39.796875 L 23.59375 -39.796875 L 41.671875 0 L 35.703125 0 Z M 29.328125 -14.5 L 20.75 -34 L 12.171875 -14.5 Z M 29.328125 -14.5 "/></g></g></g><g fill="#704a2e" fill-opacity="1"><g transform="translate(44.336224, 55.359668)"><g><path d="M 40.1875 -39.796875 L 40.1875 0 L 35.53125 0 L 11.65625 -29.671875 L 11.65625 0 L 5.96875 0 L 5.96875 -39.796875 L 10.625 -39.796875 L 34.5 -10.125 L 34.5 -39.796875 Z M 40.1875 -39.796875 "/></g></g></g><g fill="#704a2e" fill-opacity="1"><g transform="translate(91.85372, 55.359668)"><g><path d="M 5.96875 -39.796875 L 22.734375 -39.796875 C 26.941406 -39.796875 30.675781 -38.957031 33.9375 -37.28125 C 37.195312 -35.613281 39.722656 -33.273438 41.515625 -30.265625 C 43.316406 -27.253906 44.21875 -23.796875 44.21875 -19.890625 C 44.21875 -15.992188 43.316406 -12.535156 41.515625 -9.515625 C 39.722656 -6.503906 37.195312 -4.164062 33.9375 -2.5 C 30.675781 -0.832031 26.941406 0 22.734375 0 L 5.96875 0 Z M 22.390625 -4.953125 C 25.617188 -4.953125 28.453125 -5.578125 30.890625 -6.828125 C 33.335938 -8.078125 35.222656 -9.828125 36.546875 -12.078125 C 37.878906 -14.335938 38.546875 -16.941406 38.546875 -19.890625 C 38.546875 -22.847656 37.878906 -25.453125 36.546875 -27.703125 C 35.222656 -29.960938 33.335938 -31.71875 30.890625 -32.96875 C 28.453125 -34.21875 25.617188 -34.84375 22.390625 -34.84375 L 11.65625 -34.84375 L 11.65625 -4.953125 Z M 22.390625 -4.953125 "/></g></g></g><g fill="#704a2e" fill-opacity="1"><g transform="translate(140.166947, 55.359668)"><g/></g></g><g fill="#704a2e" fill-opacity="1"><g transform="translate(156.820998, 55.359668)"><g><path d="M 11.65625 -34.84375 L 11.65625 -20.96875 L 31.609375 -20.96875 L 31.609375 -16.09375 L 11.65625 -16.09375 L 11.65625 0 L 5.96875 0 L 5.96875 -39.796875 L 34.046875 -39.796875 L 34.046875 -34.84375 Z M 11.65625 -34.84375 "/></g></g></g><g fill="#704a2e" fill-opacity="1"><g transform="translate(194.278031, 55.359668)"><g><path d="M 22.453125 0.453125 C 17.148438 0.453125 13.019531 -1.0625 10.0625 -4.09375 C 7.101562 -7.125 5.625 -11.484375 5.625 -17.171875 L 5.625 -39.796875 L 11.3125 -39.796875 L 11.3125 -17.390625 C 11.3125 -8.867188 15.046875 -4.609375 22.515625 -4.609375 C 26.148438 -4.609375 28.929688 -5.65625 30.859375 -7.75 C 32.796875 -9.851562 33.765625 -13.066406 33.765625 -17.390625 L 33.765625 -39.796875 L 39.28125 -39.796875 L 39.28125 -17.171875 C 39.28125 -11.441406 37.800781 -7.070312 34.84375 -4.0625 C 31.882812 -1.050781 27.753906 0.453125 22.453125 0.453125 Z M 22.453125 0.453125 "/></g></g></g><g fill="#704a2e" fill-opacity="1"><g transform="translate(240.6019, 55.359668)"><g><path d="M 32.578125 0 L 23.984375 -12.21875 C 22.921875 -12.144531 22.085938 -12.109375 21.484375 -12.109375 L 11.65625 -12.109375 L 11.65625 0 L 5.96875 0 L 5.96875 -39.796875 L 21.484375 -39.796875 C 26.640625 -39.796875 30.691406 -38.5625 33.640625 -36.09375 C 36.597656 -33.632812 38.078125 -30.242188 38.078125 -25.921875 C 38.078125 -22.847656 37.316406 -20.234375 35.796875 -18.078125 C 34.285156 -15.921875 32.128906 -14.347656 29.328125 -13.359375 L 38.765625 0 Z M 21.3125 -16.9375 C 24.914062 -16.9375 27.664062 -17.710938 29.5625 -19.265625 C 31.457031 -20.816406 32.40625 -23.035156 32.40625 -25.921875 C 32.40625 -28.796875 31.457031 -31 29.5625 -32.53125 C 27.664062 -34.070312 24.914062 -34.84375 21.3125 -34.84375 L 11.65625 -34.84375 L 11.65625 -16.9375 Z M 21.3125 -16.9375 "/></g></g></g><g fill="#704a2e" fill-opacity="1"><g transform="translate(283.28809, 55.359668)"><g><path d="M 40.1875 -39.796875 L 40.1875 0 L 35.53125 0 L 11.65625 -29.671875 L 11.65625 0 L 5.96875 0 L 5.96875 -39.796875 L 10.625 -39.796875 L 34.5 -10.125 L 34.5 -39.796875 Z M 40.1875 -39.796875 "/></g></g></g><g fill="#704a2e" fill-opacity="1"><g transform="translate(330.805601, 55.359668)"><g><path d="M 5.96875 -39.796875 L 11.65625 -39.796875 L 11.65625 0 L 5.96875 0 Z M 5.96875 -39.796875 "/></g></g></g><g fill="#704a2e" fill-opacity="1"><g transform="translate(349.790031, 55.359668)"><g><path d="M 17.5625 0.453125 C 14.570312 0.453125 11.679688 -0.0078125 8.890625 -0.9375 C 6.109375 -1.863281 3.921875 -3.066406 2.328125 -4.546875 L 4.4375 -8.984375 C 5.945312 -7.617188 7.882812 -6.507812 10.25 -5.65625 C 12.625 -4.800781 15.0625 -4.375 17.5625 -4.375 C 20.863281 -4.375 23.328125 -4.929688 24.953125 -6.046875 C 26.585938 -7.171875 27.40625 -8.660156 27.40625 -10.515625 C 27.40625 -11.878906 26.957031 -12.988281 26.0625 -13.84375 C 25.175781 -14.695312 24.078125 -15.347656 22.765625 -15.796875 C 21.460938 -16.253906 19.613281 -16.769531 17.21875 -17.34375 C 14.226562 -18.0625 11.8125 -18.78125 9.96875 -19.5 C 8.132812 -20.21875 6.5625 -21.320312 5.25 -22.8125 C 3.945312 -24.3125 3.296875 -26.332031 3.296875 -28.875 C 3.296875 -31 3.851562 -32.910156 4.96875 -34.609375 C 6.09375 -36.316406 7.789062 -37.679688 10.0625 -38.703125 C 12.332031 -39.734375 15.15625 -40.25 18.53125 -40.25 C 20.882812 -40.25 23.195312 -39.941406 25.46875 -39.328125 C 27.738281 -38.722656 29.691406 -37.851562 31.328125 -36.71875 L 29.4375 -32.171875 C 27.769531 -33.234375 25.988281 -34.035156 24.09375 -34.578125 C 22.207031 -35.128906 20.351562 -35.40625 18.53125 -35.40625 C 15.3125 -35.40625 12.894531 -34.816406 11.28125 -33.640625 C 9.675781 -32.472656 8.875 -30.960938 8.875 -29.109375 C 8.875 -27.742188 9.328125 -26.632812 10.234375 -25.78125 C 11.140625 -24.925781 12.265625 -24.257812 13.609375 -23.78125 C 14.953125 -23.3125 16.78125 -22.8125 19.09375 -22.28125 C 22.09375 -21.5625 24.5 -20.84375 26.3125 -20.125 C 28.132812 -19.40625 29.695312 -18.304688 31 -16.828125 C 32.3125 -15.347656 32.96875 -13.359375 32.96875 -10.859375 C 32.96875 -8.773438 32.398438 -6.867188 31.265625 -5.140625 C 30.128906 -3.421875 28.40625 -2.054688 26.09375 -1.046875 C 23.78125 -0.046875 20.9375 0.453125 17.5625 0.453125 Z M 17.5625 0.453125 "/></g></g></g><g fill="#704a2e" fill-opacity="1"><g transform="translate(386.451318, 55.359668)"><g><path d="M 40.1875 -39.796875 L 40.1875 0 L 34.5 0 L 34.5 -17.734375 L 11.65625 -17.734375 L 11.65625 0 L 5.96875 0 L 5.96875 -39.796875 L 11.65625 -39.796875 L 11.65625 -22.6875 L 34.5 -22.6875 L 34.5 -39.796875 Z M 40.1875 -39.796875 "/></g></g></g><g fill="#704a2e" fill-opacity="1"><g transform="translate(433.968799, 55.359668)"><g><path d="M 5.96875 -39.796875 L 11.65625 -39.796875 L 11.65625 0 L 5.96875 0 Z M 5.96875 -39.796875 "/></g></g></g><g fill="#704a2e" fill-opacity="1"><g transform="translate(452.953258, 55.359668)"><g><path d="M 40.1875 -39.796875 L 40.1875 0 L 35.53125 0 L 11.65625 -29.671875 L 11.65625 0 L 5.96875 0 L 5.96875 -39.796875 L 10.625 -39.796875 L 34.5 -10.125 L 34.5 -39.796875 Z M 40.1875 -39.796875 "/></g></g></g><g fill="#704a2e" fill-opacity="1"><g transform="translate(500.470769, 55.359668)"><g><path d="M 33.53125 -20.125 L 39 -20.125 L 39 -4.609375 C 37.019531 -2.972656 34.722656 -1.71875 32.109375 -0.84375 C 29.492188 0.0195312 26.769531 0.453125 23.9375 0.453125 C 19.914062 0.453125 16.296875 -0.425781 13.078125 -2.1875 C 9.859375 -3.945312 7.328125 -6.367188 5.484375 -9.453125 C 3.648438 -12.546875 2.734375 -16.023438 2.734375 -19.890625 C 2.734375 -23.753906 3.648438 -27.238281 5.484375 -30.34375 C 7.328125 -33.457031 9.867188 -35.882812 13.109375 -37.625 C 16.347656 -39.375 19.992188 -40.25 24.046875 -40.25 C 27.222656 -40.25 30.109375 -39.726562 32.703125 -38.6875 C 35.304688 -37.644531 37.515625 -36.117188 39.328125 -34.109375 L 35.8125 -30.578125 C 32.625 -33.648438 28.773438 -35.1875 24.265625 -35.1875 C 21.234375 -35.1875 18.515625 -34.53125 16.109375 -33.21875 C 13.703125 -31.914062 11.816406 -30.097656 10.453125 -27.765625 C 9.085938 -25.429688 8.40625 -22.804688 8.40625 -19.890625 C 8.40625 -17.015625 9.085938 -14.410156 10.453125 -12.078125 C 11.816406 -9.742188 13.703125 -7.914062 16.109375 -6.59375 C 18.515625 -5.269531 21.21875 -4.609375 24.21875 -4.609375 C 27.78125 -4.609375 30.882812 -5.457031 33.53125 -7.15625 Z M 33.53125 -20.125 "/></g></g></g></g></g></svg>